HIERARCHY
ROOT reference
{
  OFFSET -65.3212 -1.93545 -120.338
  CHANNELS 6 Xposition Yposition Zposition Zrotation Xrotation Yrotation
  JOINT Hips
  {
    OFFSET 0 78.7191 0
    CHANNELS 3 Zrotation Xrotation Yrotation
    JOINT Chest
    {
      OFFSET 0 8.7983 -4.7612
      CHANNELS 3 Zrotation Xrotation Yrotation
      JOINT Chest2
      {
        OFFSET 0 8.0291 0.4195
        CHANNELS 3 Zrotation Xrotation Yrotation
        JOINT Chest3
        {
          OFFSET 0 9.9351 -2.2114
          CHANNELS 3 Zrotation Xrotation Yrotation
          JOINT Neck
          {
            OFFSET 0 22.3885 -0.4656
            CHANNELS 3 Zrotation Xrotation Yrotation
            JOINT Head
            {
              OFFSET -0.0001 12.643 3.4389
              CHANNELS 3 Zrotation Xrotation Yrotation
              End Site
              {
                OFFSET 0.0001 17.6655 0.5274
              }
            }
          }
          JOINT LeftCollar
          {
            OFFSET 2.2603 21.606 7.4023
            CHANNELS 3 Zrotation Xrotation Yrotation
            JOINT LeftShoulder
            {
              OFFSET 13.5163 -1.1332 -5.0146
              CHANNELS 3 Zrotation Xrotation Yrotation
              JOINT LeftElbow
              {
                OFFSET -0.0995 -28.05 -0.2431
                CHANNELS 3 Zrotation Xrotation Yrotation
                JOINT LeftWrist
                {
                  OFFSET 0.0679 -23.3996 -0.1402
                  CHANNELS 3 Zrotation Xrotation Yrotation
                  JOINT LeftFinger1
                  {
                    OFFSET 0.7932 -9.069 2.5189
                    CHANNELS 3 Zrotation Xrotation Yrotation
                    JOINT LeftFinger11
                    {
                      OFFSET -0.8272 -3.3923 0.5977
                      CHANNELS 3 Zrotation Xrotation Yrotation
                      JOINT LeftFinger12
                      {
                        OFFSET -0.5649 -2.3158 0.4082
                        CHANNELS 3 Zrotation Xrotation Yrotation
                        End Site
                        {
                          OFFSET -0.4919 -1.6479 0.2673
                        }
                      }
                    }
                  }
                  JOINT LeftFinger2
                  {
                    OFFSET 0.9159 -9.2044 0.2193
                    CHANNELS 3 Zrotation Xrotation Yrotation
                    JOINT LeftFinger21
                    {
                      OFFSET 0.0117 -4.1944 -0.0248
                      CHANNELS 3 Zrotation Xrotation Yrotation
                      JOINT LeftFinger22
                      {
                        OFFSET 0.0071 -2.3249 -0.0142
                        CHANNELS 3 Zrotation Xrotation Yrotation
                        End Site
                        {
                          OFFSET -0.1475 -2.0882 0.0028
                        }
                      }
                    }
                  }
                  JOINT LeftFinger3
                  {
                    OFFSET 0.6113 -8.7231 -2.0637
                    CHANNELS 3 Zrotation Xrotation Yrotation
                    JOINT LeftFinger31
                    {
                      OFFSET -0.1927 -3.8059 -0.2383
                      CHANNELS 3 Zrotation Xrotation Yrotation
                      JOINT LeftFinger32
                      {
                        OFFSET -0.1091 -2.1688 -0.1362
                        CHANNELS 3 Zrotation Xrotation Yrotation
                        End Site
                        {
                          OFFSET -0.2358 -1.9176 -0.0906
                        }
                      }
                    }
                  }
                  JOINT LeftFinger4
                  {
                    OFFSET -0.6151 -8.0947 -3.5641
                    CHANNELS 3 Zrotation Xrotation Yrotation
                    JOINT LeftFinger41
                    {
                      OFFSET -0.4882 -2.341 -0.6462
                      CHANNELS 3 Zrotation Xrotation Yrotation
                      JOINT LeftFinger42
                      {
                        OFFSET -0.3575 -1.7167 -0.4742
                        CHANNELS 3 Zrotation Xrotation Yrotation
                        End Site
                        {
                          OFFSET -0.4187 -1.5237 -0.3496
                        }
                      }
                    }
                  }
                  JOINT LeftFinger0
                  {
                    OFFSET -1.42 -1.8761 1.4223
                    CHANNELS 3 Zrotation Xrotation Yrotation
                    JOINT LeftFinger01
                    {
                      OFFSET -1.1471 -3.4929 2.6334
                      CHANNELS 3 Zrotation Xrotation Yrotation
                      JOINT LeftFinger02
                      {
                        OFFSET -0.823 -2.3 1.6571
                        CHANNELS 3 Zrotation Xrotation Yrotation
                        End Site
                        {
                          OFFSET -0.5822 -1.6914 1.1582
                        }
                      }
                    }
                  }
                }
              }
            }
          }
          JOINT RightCollar
          {
            OFFSET -2.2603 21.606 7.4023
            CHANNELS 3 Zrotation Xrotation Yrotation
            JOINT RightShoulder
            {
              OFFSET -13.5187 -1.1334 -5.0155
              CHANNELS 3 Zrotation Xrotation Yrotation
              JOINT RightElbow
              {
                OFFSET 0.0994 -28.0499 -0.2431
                CHANNELS 3 Zrotation Xrotation Yrotation
                JOINT RightWrist
                {
                  OFFSET -0.0679 -23.3996 -0.1402
                  CHANNELS 3 Zrotation Xrotation Yrotation
                  JOINT RightFinger1
                  {
                    OFFSET -0.7932 -9.0691 2.5189
                    CHANNELS 3 Zrotation Xrotation Yrotation
                    JOINT RightFinger11
                    {
                      OFFSET 0.8272 -3.3923 0.5977
                      CHANNELS 3 Zrotation Xrotation Yrotation
                      JOINT RightFinger12
                      {
                        OFFSET 0.565 -2.3158 0.4082
                        CHANNELS 3 Zrotation Xrotation Yrotation
                        End Site
                        {
                          OFFSET 0.4919 -1.6479 0.2673
                        }
                      }
                    }
                  }
                  JOINT RightFinger2
                  {
                    OFFSET -0.916 -9.2044 0.2193
                    CHANNELS 3 Zrotation Xrotation Yrotation
                    JOINT RightFinger21
                    {
                      OFFSET -0.0117 -4.1944 -0.0248
                      CHANNELS 3 Zrotation Xrotation Yrotation
                      JOINT RightFinger22
                      {
                        OFFSET -0.0071 -2.3249 -0.0142
                        CHANNELS 3 Zrotation Xrotation Yrotation
                        End Site
                        {
                          OFFSET 0.1475 -2.0882 0.0028
                        }
                      }
                    }
                  }
                  JOINT RightFinger3
                  {
                    OFFSET -0.6113 -8.7231 -2.0637
                    CHANNELS 3 Zrotation Xrotation Yrotation
                    JOINT RightFinger31
                    {
                      OFFSET 0.1927 -3.8059 -0.2383
                      CHANNELS 3 Zrotation Xrotation Yrotation
                      JOINT RightFinger32
                      {
                        OFFSET 0.1091 -2.1688 -0.1362
                        CHANNELS 3 Zrotation Xrotation Yrotation
                        End Site
                        {
                          OFFSET 0.2358 -1.9176 -0.0906
                        }
                      }
                    }
                  }
                  JOINT RightFinger4
                  {
                    OFFSET 0.6151 -8.0947 -3.564
                    CHANNELS 3 Zrotation Xrotation Yrotation
                    JOINT RightFinger41
                    {
                      OFFSET 0.4882 -2.341 -0.6462
                      CHANNELS 3 Zrotation Xrotation Yrotation
                      JOINT RightFinger42
                      {
                        OFFSET 0.3574 -1.7166 -0.4742
                        CHANNELS 3 Zrotation Xrotation Yrotation
                        End Site
                        {
                          OFFSET 0.4187 -1.5237 -0.3496
                        }
                      }
                    }
                  }
                  JOINT RightFinger0
                  {
                    OFFSET 1.4199 -1.8761 1.4221
                    CHANNELS 3 Zrotation Xrotation Yrotation
                    JOINT RightFinger01
                    {
                      OFFSET 1.1472 -3.4929 2.6336
                      CHANNELS 3 Zrotation Xrotation Yrotation
                      JOINT RightFinger02
                      {
                        OFFSET 0.8229 -2.3 1.6571
                        CHANNELS 3 Zrotation Xrotation Yrotation
                        End Site
                        {
                          OFFSET 0.5822 -1.6914 1.1582
                        }
                      }
                    }
                  }
                }
              }
            }
          }
        }
      }
    }
    JOINT RightHip
    {
      OFFSET -9.412 3.9771 -0.7758
      CHANNELS 3 Zrotation Xrotation Yrotation
      JOINT RightKnee
      {
        OFFSET -0.7531 -40.938 0
        CHANNELS 3 Zrotation Xrotation Yrotation
        JOINT RightAnkle
        {
          OFFSET 0 -40.1986 0
          CHANNELS 3 Zrotation Xrotation Yrotation
          JOINT RightToe
          {
            OFFSET 0 -4.4182 9.239
            CHANNELS 3 Zrotation Xrotation Yrotation
            End Site
            {
              OFFSET 0 0 6.1981
            }
          }
        }
      }
    }
    JOINT LeftHip
    {
      OFFSET 9.4119 3.9773 -0.7758
      CHANNELS 3 Zrotation Xrotation Yrotation
      JOINT LeftKnee
      {
        OFFSET 0.7532 -40.9383 0
        CHANNELS 3 Zrotation Xrotation Yrotation
        JOINT LeftAnkle
        {
          OFFSET 0 -40.1986 0
          CHANNELS 3 Zrotation Xrotation Yrotation
          JOINT LeftToe
          {
            OFFSET 0 -4.4182 9.239
            CHANNELS 3 Zrotation Xrotation Yrotation
            End Site
            {
              OFFSET 0 0 6.1981
            }
          }
        }
      }
    }
  }
}
MOTION
Frames:	5
Frame Time:	0.0333333
-3.82506 47.8603 -12.3936 0 0 -0 165.101 -6.60782 123.396 -0.207284 -6.30625 -1.34303 -0.569501 -12.6058 -2.7343 -0.569504 -12.6058 -2.73429 -7.24628 -18.0924 -4.95136 -1.843 -7.36173 -0.234554 37.9176 1.80554 -11.4665 103.943 -13.6214 70.1592 110.956 -40.9178 159.172 18.5528 -27.9103 -83.2305 8.75442 -11.0461 -8.77847 -0.280161 -3.41817 -1.47841 7.06931 -4.34508 0.64686 29.5977 -10.7145 11.2762 -0.592219 -3.40075 0.549489 18.3374 -10.7585 3.52795 39.8289 -2.31525 8.78367 -0.854298 -5.64646 1.48414 21.7349 -13.5604 5.43777 42.3534 6.11256 3.16725 -0.129187 -8.41753 5.58997 18.8942 -11.6594 5.02003 -3.51571 -22.4099 -12.1406 4.49335 5.80534 -1.44694 9.29689 11.5825 -3.41818 -29.8986 -1.07344 4.21828 -98.7158 -26.4657 -48.075 -108.708 -28.8038 -174.441 4.67208 -44.7468 122.949 -5.57388 -7.25201 9.68665 -0.0600418 -0.571342 0.677301 -2.53066 -0.866064 0.0217967 -26.0867 -3.03859 -6.7441 0.107217 -0.532363 -0.0869781 -14.8329 -4.92639 -0.995763 -34.5963 6.1337 -2.73475 0.239405 -1.50982 -0.732609 -18.7681 -6.87141 -2.19727 -40.8094 13.4273 4.60191 -0.476041 -2.38588 -4.08172 -14.8882 -5.28798 -1.95502 -12.1632 -7.63108 11.8426 -13.1187 23.6626 10.6345 -22.7627 34.3457 19.2671 -40.5458 -14.3413 -44.0016 78.5889 75.0544 -71.3543 2.64716 2.57286 -1.35553 1.21576 8.1723 -0.556497 50.4374 -19.2281 40.2669 -179.873 63.113 176.298 -4.28538 -0.193783 -23.7517 1.40191 -10.3667 0.12717 
-3.86084 47.8302 -12.4462 0 0 -0 164.964 -6.74151 123.491 -0.181861 -6.44703 -1.34687 -0.522323 -12.8879 -2.74073 -0.522328 -12.8879 -2.74075 -6.73441 -17.2842 -4.7148 -0.974583 -6.86079 -0.245566 37.496 1.72372 -11.8385 103.962 -13.8604 69.8606 111.029 -41.0636 159.054 18.4971 -27.8511 -83.122 8.75443 -11.0461 -8.77846 -0.280212 -3.41819 -1.47842 7.0693 -4.34506 0.646865 29.5977 -10.7145 11.2762 -0.59226 -3.40074 0.549474 18.3373 -10.7584 3.52796 39.8289 -2.31525 8.78367 -0.854284 -5.64647 1.48416 21.7349 -13.5605 5.43778 42.3534 6.11256 3.16726 -0.129266 -8.41751 5.58998 18.8942 -11.6594 5.02003 -3.43247 -22.3433 -12.1257 3.86174 5.01036 -1.21906 8.41254 10.5566 -3.02518 -29.8921 -1.08243 4.38773 -98.8179 -26.7412 -47.6118 -108.698 -28.8664 -174.63 4.954 -44.7108 123.507 -5.60434 -7.26846 9.68333 -0.060038 -0.57135 0.677396 -2.53047 -0.86601 0.0217992 -26.0868 -3.03859 -6.7441 0.107221 -0.53237 -0.0869624 -14.8329 -4.92639 -0.995752 -34.5963 6.13369 -2.73476 0.239441 -1.50981 -0.732589 -18.7681 -6.87142 -2.19728 -40.8094 13.4273 4.6019 -0.476155 -2.3859 -4.08169 -14.8882 -5.28798 -1.95504 -12.5339 -7.1138 11.9741 -13.5538 24.2461 11.0141 -23.5886 35.0715 20.0231 -42.6566 -14.3468 -45.1699 83.6785 75.2038 -76.4329 3.02987 2.63792 -0.624808 1.16596 7.85063 -0.531091 53.4203 -19.9742 41.9873 -179.876 63.9421 176.366 -4.40748 0.361696 -23.4584 1.33099 -9.8528 0.114702 
-3.78241 47.7348 -12.4135 0 0 -0 164.24 -7.31755 123.7 -0.12994 -6.80865 -1.35654 -0.428102 -13.6122 -2.75828 -0.428105 -13.6123 -2.75827 -6.18014 -15.6214 -4.5173 -0.384395 -6.69561 -0.366197 36.7034 1.54678 -12.8819 104.181 -13.8797 69.7846 111.148 -41.7011 159.017 18.371 -27.6462 -83.0703 8.75442 -11.0461 -8.77848 -0.280129 -3.4182 -1.47839 7.06932 -4.34506 0.646879 29.5977 -10.7145 11.2762 -0.592289 -3.40073 0.549484 18.3374 -10.7585 3.52796 39.8289 -2.31526 8.78367 -0.85427 -5.64646 1.48416 21.7349 -13.5604 5.43778 42.3534 6.11256 3.16727 -0.129167 -8.4175 5.58997 18.8942 -11.6594 5.02002 -3.36547 -22.2896 -12.114 3.41756 4.44686 -1.06342 7.79026 9.82416 -2.75648 -30.0248 -1.08871 4.8501 -98.8842 -26.8863 -47.3918 -108.731 -29.4907 -174.94 5.1467 -44.6038 124.034 -5.63477 -7.28488 9.67998 -0.0599961 -0.571292 0.677256 -2.5303 -0.865954 0.0218047 -26.0867 -3.03859 -6.7441 0.10721 -0.532375 -0.0869641 -14.8329 -4.92639 -0.995751 -34.5963 6.13369 -2.73475 0.23937 -1.50983 -0.732601 -18.7681 -6.87142 -2.19727 -40.8094 13.4273 4.6019 -0.476081 -2.38588 -4.0817 -14.8882 -5.28799 -1.95504 -12.8325 -6.69822 12.0827 -13.9501 24.7682 11.3609 -24.3521 35.7201 20.7237 -44.6513 -14.7719 -46.6995 85.9114 75.2499 -78.6699 3.46706 2.767 -0.586636 0.974155 6.60015 -0.435199 56.3511 -21.5384 44.009 -179.866 65.3007 176.448 -4.67362 1.3138 -22.7432 1.37361 -10.1618 0.122132 
-3.78524 47.6688 -12.4938 0 0 -0 164.137 -7.36328 123.714 -0.10036 -6.87966 -1.34762 -0.369086 -13.755 -2.73741 -0.369087 -13.755 -2.7374 -5.63282 -15.096 -4.29315 0.382639 -6.01959 -0.318674 36.3538 1.53765 -12.8312 104.066 -13.9908 69.1585 111.075 -41.2957 158.946 18.3982 -27.6755 -82.9418 8.75443 -11.0461 -8.77844 -0.280132 -3.41818 -1.47839 7.06932 -4.34507 0.646884 29.5977 -10.7145 11.2763 -0.592262 -3.40074 0.549486 18.3373 -10.7585 3.52795 39.8289 -2.31526 8.78367 -0.85427 -5.64644 1.48416 21.7349 -13.5605 5.43779 42.3534 6.1126 3.1673 -0.12917 -8.41752 5.58996 18.8942 -11.6594 5.02002 -3.0252 -22.0164 -12.0551 3.19429 4.16226 -0.986636 7.47725 9.45246 -2.62384 -30.1245 -1.08897 4.76612 -99.0225 -27.0187 -46.8202 -108.694 -29.2067 -175.072 5.16606 -44.6927 124.361 -5.66509 -7.30127 9.67667 -0.0600731 -0.571318 0.677345 -2.53012 -0.865894 0.0217968 -26.0867 -3.03859 -6.74409 0.107213 -0.532375 -0.0869536 -14.8329 -4.92638 -0.99576 -34.5963 6.13368 -2.73476 0.239386 -1.50983 -0.732591 -18.7681 -6.87143 -2.19727 -40.8094 13.4273 4.60189 -0.47609 -2.38589 -4.08169 -14.8882 -5.28798 -1.95503 -13.221 -6.15905 12.2284 -14.4537 25.4189 11.8029 -25.3165 36.5098 21.6111 -46.587 -14.6045 -47.3083 85.8037 75.2676 -78.6194 3.5495 2.72234 -0.608028 0.992029 6.71743 -0.443983 58.7774 -22.1544 45.2048 -179.839 67.3682 176.53 -4.75173 1.98037 -21.969 1.26318 -9.36011 0.103394 
-3.77741 47.5972 -12.5532 0 0 -0 163.988 -7.48533 123.723 -0.0679011 -6.97593 -1.33722 -0.304666 -13.9483 -2.71334 -0.304667 -13.9483 -2.71336 -5.07565 -14.369 -4.22378 1.37503 -5.48019 -0.379682 36.0552 1.51153 -12.9409 104.037 -14.0545 68.8217 110.965 -41.0928 158.57 18.4685 -27.4956 -82.5809 8.75442 -11.0461 -8.77844 -0.280155 -3.41818 -1.4784 7.06932 -4.34505 0.646913 29.5977 -10.7145 11.2762 -0.592279 -3.40076 0.54951 18.3373 -10.7584 3.52796 39.8289 -2.31523 8.78367 -0.854263 -5.64647 1.48418 21.7349 -13.5604 5.43778 42.3534 6.11262 3.1673 -0.129187 -8.41753 5.58998 18.8942 -11.6594 5.02002 -2.96872 -21.9707 -12.0457 2.49185 3.26117 -0.751537 6.49475 8.27194 -2.21859 -30.223 -1.08728 4.74361 -99.1796 -27.159 -46.5159 -108.632 -29.0938 -175.283 5.28888 -44.6378 124.774 -5.69524 -7.31754 9.67334 -0.0600017 -0.571261 0.677208 -2.52997 -0.865842 0.0218056 -26.0867 -3.03859 -6.74409 0.107226 -0.532385 -0.0869445 -14.8329 -4.9264 -0.995754 -34.5963 6.1337 -2.73476 0.239422 -1.50982 -0.732584 -18.7681 -6.87144 -2.19727 -40.8094 13.4273 4.60191 -0.476066 -2.38588 -4.0817 -14.8882 -5.28798 -1.95503 -13.4621 -5.82525 12.3212 -14.8628 25.9371 12.1629 -26.1151 37.1397 22.3477 -48.3045 -14.5114 -47.6357 83.2627 75.2595 -76.1526 3.74828 2.66004 -0.61807 1.05925 7.15693 -0.477346 60.9584 -22.79 46.0788 -179.781 70.1309 176.59 -4.97531 2.45114 -21.0467 1.10099 -8.17597 0.0786776 
